<svg width="32" height="30" viewBox="0 0 32 30" fill="none" xmlns="http://www.w3.org/2000/svg">
<g filter="url(#filter0_d_10_7)">
<path d="M17.36 0.666992C19.76 0.666992 20.267 0.693992 21.493 0.746992C22.906 0.813992 23.88 1.03999 24.72 1.37399C25.6 1.70699 26.347 2.17399 27.08 2.90699C27.827 3.63999 28.28 4.38699 28.627 5.26699C28.96 6.10699 29.174 7.07999 29.24 8.50699C29.307 9.77399 29.32 10.267 29.32 12.934V15.067C29.32 17.734 29.307 18.227 29.24 19.494C29.217 20.659 28.994 21.764 28.604 22.788L28.626 22.721C28.279 23.601 27.826 24.348 27.093 25.081C26.346 25.828 25.6 26.281 24.72 26.628C23.88 26.961 22.907 27.175 21.493 27.241C20.226 27.308 19.72 27.321 17.053 27.321H14.933C12.266 27.321 11.773 27.308 10.493 27.241C9.32796 27.218 8.22296 26.995 7.19896 26.605L7.26596 26.627C6.34296 26.274 5.55596 25.753 4.90696 25.094L4.90596 25.093C4.23996 24.441 3.71396 23.649 3.37396 22.764L3.35896 22.719C2.99196 21.763 2.76896 20.657 2.74596 19.502V19.492C2.69296 18.45 2.66296 17.229 2.66296 16.002C2.66296 15.776 2.66396 15.55 2.66596 15.325V15.359V12.626C2.66596 10.226 2.69296 9.71899 2.74596 8.49299C2.81296 7.07999 3.03896 6.10599 3.35896 5.26599C3.70596 4.38599 4.15896 3.63899 4.90596 2.90599C5.55096 2.23899 6.33996 1.71599 7.22296 1.38699L7.26596 1.37299C8.22096 1.00199 9.32596 0.773992 10.481 0.746992H10.493C11.72 0.693992 12.226 0.666992 14.626 0.666992H17.36ZM17.387 3.06699H14.6C12.293 3.06699 11.8 3.09399 10.6 3.14699C9.30696 3.19999 8.59996 3.41399 8.13296 3.59999C7.50596 3.83999 7.06596 4.13299 6.59996 4.59999C6.13396 5.06699 5.83996 5.50699 5.59996 6.13299C5.42696 6.59999 5.19996 7.30599 5.14696 8.61299C5.09396 9.81299 5.06696 10.293 5.06696 12.613V15.386C5.06696 17.706 5.09396 18.186 5.14696 19.386C5.19996 20.679 5.41396 21.386 5.59996 21.853C5.83996 22.48 6.13296 22.92 6.59996 23.386C7.06696 23.852 7.50696 24.146 8.13296 24.386C8.59996 24.573 9.30596 24.786 10.613 24.839C11.906 24.906 12.373 24.919 15.253 24.919H16.733C19.626 24.919 20.08 24.906 21.386 24.839C22.679 24.786 23.386 24.572 23.853 24.386C24.48 24.146 24.92 23.853 25.386 23.386C25.852 22.919 26.146 22.479 26.386 21.853C26.573 21.386 26.786 20.68 26.839 19.386C26.906 18.079 26.919 17.626 26.919 14.733V13.266C26.919 10.373 26.906 9.90599 26.839 8.59899C26.786 7.30599 26.572 6.59899 26.386 6.13199C26.16 5.53099 25.819 5.01799 25.387 4.59999L25.386 4.59899C24.966 4.16599 24.454 3.82499 23.881 3.60799L23.853 3.59899C23.121 3.32299 22.275 3.15799 21.391 3.14599H21.386C20.358 3.09399 19.155 3.06399 17.944 3.06399C17.748 3.06399 17.552 3.06499 17.356 3.06599H17.386L17.387 3.06699ZM16 7.14699C19.781 7.14699 22.847 10.212 22.847 13.994C22.847 17.776 19.782 20.841 16 20.841C12.219 20.841 9.15296 17.776 9.15296 13.994C9.15296 10.212 12.218 7.14699 16 7.14699ZM16 9.54699C13.544 9.54699 11.553 11.538 11.553 13.994C11.553 16.45 13.544 18.441 16 18.441C18.456 18.441 20.447 16.45 20.447 13.994C20.447 11.538 18.456 9.54699 16 9.54699ZM23.107 5.27999C23.991 5.27999 24.707 5.99599 24.707 6.87999C24.707 7.76399 23.991 8.47999 23.107 8.47999C22.223 8.47999 21.507 7.76399 21.507 6.87999C21.507 5.99599 22.223 5.27999 23.107 5.27999Z" fill="white"/>
</g>
<defs>
<filter id="filter0_d_10_7" x="-1.33704" y="0.666992" width="34.657" height="34.6538" filterUnits="userSpaceOnUse" color-interpolation-filters="sRGB">
<feFlood flood-opacity="0" result="BackgroundImageFix"/>
<feColorMatrix in="SourceAlpha" type="matrix" values="0 0 0 0 0 0 0 0 0 0 0 0 0 0 0 0 0 0 127 0" result="hardAlpha"/>
<feOffset dy="4"/>
<feGaussianBlur stdDeviation="2"/>
<feComposite in2="hardAlpha" operator="out"/>
<feColorMatrix type="matrix" values="0 0 0 0 0 0 0 0 0 0 0 0 0 0 0 0 0 0 0.25 0"/>
<feBlend mode="normal" in2="BackgroundImageFix" result="effect1_dropShadow_10_7"/>
<feBlend mode="normal" in="SourceGraphic" in2="effect1_dropShadow_10_7" result="shape"/>
</filter>
</defs>
</svg>
